<svg xmlns="http://www.w3.org/2000/svg" viewBox="0 0 32 32"><path d="M10 0L15 0 15 6 10 6 10 0ZM8 0L8 6 6.8 6C6.3 6 6 6.3 6 6.8L6 8 0 8 0 1.5C0 0.7 0.7 0 1.5 0L8 0ZM10 32L10 26 15 26 15 32 10 32ZM8 32L1.5 32C0.7 32 0 31.3 0 30.5L0 24 6 24 6 25.3C6 25.7 6.3 26 6.8 26L8 26 8 32ZM17 0L22 0 22 6 17 6 17 0ZM17 32L17 26 22 26 22 32 17 32ZM24 0L30.5 0C31.3 0 32 0.7 32 1.5L32 8 26 8 26 6.8C26 6.3 25.7 6 25.3 6L24 6 24 0ZM24 32L24 26 25.3 26C25.7 26 26 25.7 26 25.3L26 24 32 24 32 30.5C32 31.3 31.3 32 30.5 32L24 32ZM32 10L32 15 26 15 26 10 32 10ZM0 10L6 10 6 15 0 15 0 10ZM32 17L32 22 26 22 26 17 32 17ZM0 17L6 17 6 22 0 22 0 17Z"/></svg>