<svg xmlns="http://www.w3.org/2000/svg" viewBox="0 0 32 32"><path d="M11 0L15 0 15 8 11 8 11 0ZM9 0L9 8C8.4 8 8 8.4 8 9L0 9 0 2C0 0.9 0.9 0 2 0L9 0ZM11 32L11 24 15 24 15 32 11 32ZM9 32L2 32C0.9 32 0 31.1 0 30L0 23 8 23C8 23.6 8.4 24 9 24L9 32ZM17 0L21 0 21 8 17 8 17 0ZM17 32L17 24 21 24 21 32 17 32ZM23 0L30 0C31.1 0 32 0.9 32 2L32 9 24 9C24 8.4 23.6 8 23 8L23 0ZM23 32L23 24C23.6 24 24 23.6 24 23L32 23 32 30C32 31.1 31.1 32 30 32L23 32ZM32 11L32 15 24 15 24 11 32 11ZM0 11L8 11 8 15 0 15 0 11ZM32 17L32 21 24 21 24 17 32 17ZM0 17L8 17 8 21 0 21 0 17Z"/></svg>
