<svg xmlns="http://www.w3.org/2000/svg" viewBox="0 0 32 32"><path d="M8 0L15 0 15 4 8 4 8 0ZM6 0L6 4 4.5 4C4.2 4 4 4.2 4 4.5L4 6 0 6 0 1C0 0.4 0.4 0 1 0L6 0ZM8 32L8 28 15 28 15 32 8 32ZM6 32L1 32C0.4 32 0 31.6 0 31L0 26 4 26 4 27.5C4 27.8 4.2 28 4.5 28L6 28 6 32ZM17 0L24 0 24 4 17 4 17 0ZM17 32L17 28 24 28 24 32 17 32ZM26 0L31 0C31.6 0 32 0.4 32 1L32 6 28 6 28 4.5C28 4.2 27.8 4 27.5 4L26 4 26 0ZM26 32L26 28 27.5 28C27.8 28 28 27.8 28 27.5L28 26 32 26 32 31C32 31.6 31.6 32 31 32L26 32ZM32 8L32 15 28 15 28 8 32 8ZM0 8L4 8 4 15 0 15 0 8ZM32 17L32 24 28 24 28 17 32 17ZM0 17L4 17 4 24 0 24 0 17Z"/></svg>
