<svg xmlns="http://www.w3.org/2000/svg" viewBox="0 0 32 32"><path d="M8 0L14 0 14 1 8 1 8 0ZM4 0L4 1 1.3 1C1.1 1 1 1.1 1 1.3L1 4 0 4 0 0.5C0 0.2 0.2 0 0.5 0L4 0ZM8 32L8 31 14 31 14 32 8 32ZM4 32L0.5 32C0.2 32 0 31.8 0 31.5L0 28 1 28 1 30.8C1 30.9 1.1 31 1.3 31L4 31 4 32ZM18 0L24 0 24 1 18 1 18 0ZM18 32L18 31 24 31 24 32 18 32ZM28 0L31.5 0C31.8 0 32 0.2 32 0.5L32 4 31 4 31 1.3C31 1.1 30.9 1 30.8 1L28 1 28 0ZM28 32L28 31 30.8 31C30.9 31 31 30.9 31 30.8L31 28 32 28 32 31.5C32 31.8 31.8 32 31.5 32L28 32ZM32 8L32 14 31 14 31 8 32 8ZM0 8L1 8 1 14 0 14 0 8ZM32 18L32 24 31 24 31 18 32 18ZM0 18L1 18 1 24 0 24 0 18Z"/></svg>