<svg xmlns="http://www.w3.org/2000/svg" width="192" height="32" viewBox="0 0 192 32">
	<path d="M9.4 31.6L0.5 19.1C0.2 18.6 0.3 18.1 0.7 17.7L5.2 14.1C5.7 13.8 6.3 13.9 6.6 14.3 6.7 14.3 6.7 14.3 6.7 14.3L12.8 23C13.1 23.4 13.7 23.5 14.2 23.2 14.3 23.1 14.4 23 14.5 22.8L24.8 0.9C25 0.5 25.6 0.2 26.1 0.5 26.1 0.5 26.1 0.5 26.1 0.5L31.2 3.2C31.6 3.4 31.8 4 31.6 4.5L18.9 31.4C18.7 31.8 18.4 32 18 32L10.2 32C9.9 32 9.6 31.8 9.4 31.6Z"/>
	<path d="M50.4 31.7L40.4 18.1C40.2 17.8 40.3 17.3 40.6 17.1L44.2 14.3C44.5 14 45 14.1 45.2 14.4 45.2 14.4 45.2 14.4 45.2 14.4L53.1 25.2C53.4 25.5 53.8 25.6 54.2 25.4 54.3 25.3 54.3 25.2 54.4 25.1L66.3 0.7C66.5 0.3 66.9 0.2 67.3 0.3 67.3 0.3 67.3 0.3 67.3 0.3L71.3 2.4C71.7 2.6 71.9 3 71.7 3.4L57.9 31.6C57.8 31.8 57.5 32 57.2 32L51 32C50.8 32 50.5 31.9 50.4 31.7Z"/>
	<path d="M96.4 32L91.9 32C91.8 32 91.6 31.9 91.5 31.8L80.3 17.1C80.1 16.9 80.2 16.5 80.4 16.4 80.4 16.4 80.4 16.4 80.4 16.4L83 14.5C83.2 14.3 83.5 14.4 83.7 14.6L93.5 27.4C93.6 27.7 94 27.7 94.2 27.5 94.2 27.5 94.3 27.4 94.3 27.4L108 0.4C108.1 0.2 108.4 0.1 108.7 0.2L111.5 1.6C111.8 1.8 111.9 2.1 111.8 2.3L111.8 2.3 96.8 31.7C96.7 31.9 96.6 32 96.4 32Z"/>
	<path d="M132.8 31.9L120.2 16.1C120.1 16 120.1 15.7 120.3 15.6 120.3 15.6 120.3 15.6 120.3 15.6L121.5 14.8C121.7 14.6 121.9 14.7 122 14.8L133.7 29.6C133.9 29.7 134.1 29.7 134.3 29.6 134.3 29.6 134.3 29.5 134.4 29.5L149.8 0.3C149.9 0.1 150.1 0.1 150.3 0.2L151.6 0.8C151.8 0.9 151.9 1.1 151.8 1.3 151.8 1.3 151.8 1.3 151.8 1.3L135.6 31.8C135.6 31.9 135.4 32 135.3 32L133.1 32C132.9 32 132.8 31.9 132.8 31.9Z"/>
	<path d="M174.7 32L173.6 32C173.6 32 173.5 32 173.5 31.9L160.2 15.6C160.1 15.5 160.1 15.3 160.2 15.2 160.2 15.2 160.2 15.2 160.2 15.2L160.7 14.9C160.8 14.8 161 14.8 161.1 14.9L173.9 30.7C174 30.8 174.2 30.8 174.3 30.7 174.3 30.7 174.3 30.7 174.3 30.7L190.9 0.2C190.9 0.1 191.1 0 191.2 0.1L191.8 0.4C191.9 0.4 191.9 0.6 191.9 0.7 191.9 0.7 191.9 0.7 191.9 0.7L175 31.9C174.9 31.9 174.8 32 174.7 32Z"/>
</svg>
