<svg xmlns="http://www.w3.org/2000/svg" width="227" height="64" viewBox="0 0 227 64">
	<path d="M19 63.2L1.1 38.2C0.5 37.3 0.7 36.1 1.5 35.4L10.6 28.3C11.5 27.6 12.8 27.7 13.5 28.6 13.5 28.6 13.5 28.7 13.6 28.7L25.9 45.9C26.6 46.8 27.8 47.1 28.8 46.4 29 46.2 29.3 45.9 29.4 45.6L50.3 1.9C50.8 0.9 52 0.5 53 0.9 53.1 1 53.1 1 53.1 1L63.3 6.3C64.2 6.8 64.6 8 64.2 8.9L38.4 62.9C38.1 63.6 37.4 64 36.6 64L20.7 64C20 64 19.4 63.7 19 63.2Z"/>
	<path d="M102.1 63.4L81.9 36.2C81.4 35.5 81.5 34.6 82.2 34.1L89.5 28.6C90.2 28.1 91.1 28.2 91.6 28.9 91.6 28.9 91.6 28.9 91.6 28.9L107.6 50.4C108.1 51.1 109.1 51.2 109.8 50.7 110 50.6 110.1 50.4 110.2 50.2L134.4 1.4C134.8 0.6 135.7 0.3 136.5 0.7 136.5 0.7 136.5 0.7 136.5 0.7L144.7 4.8C145.4 5.2 145.7 6.1 145.3 6.8L117.4 63.2C117.1 63.7 116.6 64 116 64L103.3 64C102.9 64 102.4 63.8 102.1 63.4Z"/>
	<polygon points="54.7 11.9 28.9 65 5.6 32.5 6.4 31.9 29.2 63.7 28.3 63.8 53.8 11.4 50.2 9.7 58.2 3.6 58.3 13.6 54.7 11.9" fill="#F5A623"/>
	<path d="M141.2 2.6L133.2 8.6 141.2 12.6 141.2 2.6zM85.6 31.6L110.1 64.3 110.6 64.9 111 64.2 137.9 10.3 137 9.9 110.1 63.8 110.9 63.7 86.4 31 85.6 31.6zM222.2 2.6L214.2 8.6 222.2 12.6 222.2 2.6zM166.6 31.6L191.1 64.3 191.6 64.9 192 64.2 218.9 10.3 218 9.9 191.1 63.8 191.9 63.7 167.4 31 166.6 31.6z" fill="#F5A623"/>
</svg>
