<svg xmlns="http://www.w3.org/2000/svg" width="227" height="64" viewBox="0 0 227 64">
  <g fill="none" fill-rule="evenodd">
    <path fill="#000" fill-rule="nonzero" d="M19.0213713,63.1533197 L1.10504703,38.1608267 C0.484611418,37.295346 0.657209039,36.1036465 1.49861697,35.4434248 L10.6319961,28.2767998 C11.5093121,27.5884025 12.7872931,27.7306096 13.4864467,28.5944283 C13.5110192,28.6247882 13.5346887,28.655846 13.5574252,28.6875624 L25.9232611,45.9373655 C26.5701745,46.8397815 27.8375846,47.0549755 28.7541008,46.4180146 C29.0413215,46.2184019 29.2710072,45.9488071 29.4206938,45.6355976 L50.3226104,1.89970099 C50.8002579,0.900254842 52.0103384,0.471296359 53.0254009,0.941595397 C53.0551401,0.955374158 53.0845352,0.969861589 53.1135603,0.985044892 L63.2912195,6.30906679 C64.2480755,6.8096065 64.6374704,7.96151421 64.176136,8.92682636 L38.4048542,62.8515517 C38.0698341,63.5525596 37.3537674,64 36.566921,64 L20.6808708,64 C20.02085,64 19.4019788,63.6842505 19.0213713,63.1533197 Z"/>
    <path fill="#000" fill-rule="nonzero" d="M21.1201595,63.3865179 L0.880379756,36.1865626 C0.39099493,35.5288852 0.524751102,34.6067544 1.18155048,34.1102562 L8.48887458,28.5863881 C9.15624381,28.0818998 10.1126122,28.2056176 10.6249831,28.8627196 C10.6319258,28.8716234 10.6387667,28.8806036 10.6455046,28.8896586 L26.645093,50.3912803 C27.1423535,51.0595417 28.0956602,51.204367 28.7743631,50.7147567 C28.973651,50.5709921 29.1344393,50.3816633 29.2428671,50.1630914 L53.4462216,1.37326996 C53.8154877,0.628892763 54.7277026,0.32019973 55.4837107,0.683784776 C55.4922477,0.687890476 55.5007456,0.69207472 55.5092031,0.696336959 L63.6690126,4.80853188 C64.4080905,5.18099554 64.7081688,6.06757446 64.3437785,6.80212281 L36.3869385,63.158329 C36.1314468,63.6733564 35.6002015,64 35.0180647,64 L22.3490599,64 C21.8635446,64 21.4071049,63.7721397 21.1201595,63.3865179 Z" transform="translate(81)"/>
    <path fill="#F5A623" fill-rule="nonzero" d="M58.2189175 3.5504723L50.2326541 9.67171378 58.3241526 13.6122279 58.2189175 3.5504723zM5.59360442 32.5077502L28.3739431 64.2912776 28.8626018 64.9730628 29.2298664 64.2189175 54.9704513 11.3628943 54.0713959 10.9250594 28.330811 63.7810825 29.1867342 63.7087224 6.40639558 31.9251951 5.59360442 32.5077502zM141.22343 2.55269819L133.175969 8.59325821 141.227401 12.6150033 141.22343 2.55269819zM85.6000944 31.6147693L110.130181 64.3001258 110.615839 64.9472446 110.977389 64.2234303 137.894161 10.3367287 136.999557 9.88986812 110.082785 63.7765697 110.929993 63.6998742 86.3999056 31.0145176 85.6000944 31.6147693zM222.22343 2.55269819L214.175969 8.59325821 222.227401 12.6150033 222.22343 2.55269819zM166.600094 31.6147693L191.130181 64.3001258 191.615839 64.9472446 191.977389 64.2234303 218.894161 10.3367287 217.999557 9.88986812 191.082785 63.7765697 191.929993 63.6998742 167.399906 31.0145176 166.600094 31.6147693z"/>
  </g>
</svg>
