<svg xmlns="http://www.w3.org/2000/svg" width="128" height="72" viewBox="0 0 128 72">
  <g fill="none" fill-rule="evenodd">
    <path fill="#000" d="M12.289231,29.1670425 L40.8704871,0.585786438 C41.6515357,-0.195262146 42.9178657,-0.195262146 43.6989143,0.585786438 L52.2874947,9.17436689 C53.0685433,9.95541547 53.0685433,11.2217454 52.2874947,12.002794 L33.7090326,30.5812561 C32.927984,31.3623047 32.927984,32.6286346 33.7090326,33.4096832 L52.2874947,51.9881453 C53.0685433,52.7691939 53.0685433,54.0355238 52.2874947,54.8165724 L43.6989143,63.4051529 C42.9178657,64.1862015 41.6515357,64.1862015 40.8704871,63.4051529 L12.289231,34.8238968 C10.7271339,33.2617996 10.7271339,30.7291397 12.289231,29.1670425 Z" transform="translate(0 5)"/>
    <path stroke="#979797" d="M4,47 L4,31 C4,28.790861 5.790861,27 8,27 L24,27" transform="rotate(-45 14 37)"/>
    <polyline stroke="#4A90E2" points="25 47 25 27 45 27" transform="rotate(-45 35 37)"/>
    <circle cx="22" cy="37" r="2" fill="#4A90E2"/>
    <path stroke="#979797" d="M46,47 L46,29 C46,27.8954305 46.8954305,27 48,27 L66,27" transform="rotate(-45 56 37)"/>
    <path stroke="#979797" d="M108,9 L108,4 C108,2.8954305 108.895431,2 110,2 L115,2" transform="rotate(45 111.5 5.5)"/>
    <path stroke="#979797" d="M117,18 L117,13 C117,11.8954305 117.895431,11 119,11 L124,11" transform="rotate(135 120.5 14.5)"/>
    <path stroke="#979797" d="M117,62 L117,57 C117,55.8954305 117.895431,55 119,55 L124,55" transform="rotate(135 120.5 58.5)"/>
    <path stroke="#979797" d="M108,71 L108,66 C108,64.8954305 108.895431,64 110,64 L115,64" transform="scale(1 -1) rotate(45 274.46 0)"/>
    <path fill="#000" d="M12.289231,29.1670425 L40.8704871,0.585786438 C41.6515357,-0.195262146 42.9178657,-0.195262146 43.6989143,0.585786438 L52.2874947,9.17436689 C53.0685433,9.95541547 53.0685433,11.2217454 52.2874947,12.002794 L33.7090326,30.5812561 C32.927984,31.3623047 32.927984,32.6286346 33.7090326,33.4096832 L52.2874947,51.9881453 C53.0685433,52.7691939 53.0685433,54.0355238 52.2874947,54.8165724 L43.6989143,63.4051529 C42.9178657,64.1862015 41.6515357,64.1862015 40.8704871,63.4051529 L12.289231,34.8238968 C10.7271339,33.2617996 10.7271339,30.7291397 12.289231,29.1670425 Z" transform="translate(69 5)"/>
    <polyline stroke="#4A90E2" points="96 52 96 21 127 21" transform="rotate(-45 111.5 36.5)"/>
    <circle cx="112" cy="15" r="2" fill="#4A90E2"/>
    <circle cx="112" cy="59" r="2" fill="#4A90E2"/>
  </g>
</svg>
