<svg xmlns="http://www.w3.org/2000/svg" width="192" height="32" viewBox="0 0 192 32">
  <g fill="none" fill-rule="evenodd">
    <path fill="#000" fill-rule="nonzero" d="M9.36436742,31.5766598 L0.544023153,19.0804133 C0.238577929,18.647673 0.323549065,18.0518233 0.737780664,17.7217124 L5.23421349,14.1383999 C5.66612287,13.7942012 6.29528276,13.8653048 6.63948145,14.2972142 C6.65157868,14.3123941 6.66323136,14.327923 6.6744247,14.3437812 L12.7622208,22.9686828 C13.0807013,23.4198908 13.704657,23.5274877 14.155865,23.2090073 C14.297266,23.1092009 14.410342,22.9744035 14.4840339,22.8177988 L24.7742082,0.949850493 C25.0093577,0.450127421 25.6050897,0.235648179 26.1048128,0.470797699 C26.1194536,0.477687079 26.133925,0.484930794 26.1482143,0.492522446 L31.1587542,3.15453339 C31.6298218,3.40480325 31.8215239,3.98075711 31.5944054,4.46341318 L18.9070052,31.4257759 C18.7420722,31.7762798 18.389547,32 18.0021765,32 L10.1813518,32 C9.85641848,32 9.55174341,31.8421253 9.36436742,31.5766598 Z"/>
    <path fill="#000" fill-rule="nonzero" d="M10.397617,31.6932589 L0.433417726,18.0932813 C0.192489811,17.7644426 0.258339004,17.3033772 0.581686391,17.0551281 L4.17913826,14.293194 C4.50768926,14.0409499 4.97851676,14.1028088 5.23076092,14.4313598 C5.23417884,14.4358117 5.23754669,14.4403018 5.24086382,14.4448293 L13.1175842,25.1956402 C13.3623894,25.5297708 13.8317096,25.6021835 14.1658403,25.3573783 C14.2639513,25.2854961 14.3431086,25.1908316 14.3964884,25.0815457 L26.311986,0.686634981 C26.4937785,0.314446381 26.942869,0.160099865 27.3150576,0.341892388 C27.3192604,0.343945238 27.323444,0.34603736 27.3276077,0.348168479 L31.3447447,2.40426594 C31.7085984,2.59049777 31.8563292,3.03378723 31.6769371,3.4010614 L17.9135697,31.5791645 C17.7877892,31.8366782 17.526253,32 17.2396626,32 L11.0026141,32 C10.7635912,32 10.5388824,31.8860698 10.397617,31.6932589 Z" transform="translate(40)"/>
    <path fill="#000" fill-rule="nonzero" d="M16.3689289,32 L11.9360202,32 C11.7800376,32 11.6329913,31.9272049 11.5384142,31.8031657 L0.308006063,17.0743287 C0.140572274,16.854737 0.182854657,16.5409908 0.402446409,16.373557 C0.404545687,16.3719563 0.40665761,16.3703723 0.408781978,16.3688051 L2.97362171,14.4766546 C3.19335306,14.314553 3.50249629,14.3587105 3.66805787,14.5758468 L13.4786518,27.4425777 C13.6460856,27.6621695 13.9598318,27.7044519 14.1794235,27.5370181 C14.2391935,27.4914449 14.2879198,27.4329828 14.3219785,27.3659801 L28.0090126,0.439875772 C28.1329763,0.196005519 28.4299131,0.0970373801 28.6753983,0.217771381 L31.5453658,1.62927228 C31.7931607,1.75114222 31.8952431,2.05081481 31.7733731,2.29860974 L31.7704214,2.30451271 L16.8146496,31.726568 C16.729373,31.8943301 16.5571208,32 16.3689289,32 Z" transform="translate(80)"/>
    <path fill="#000" fill-rule="nonzero" d="M12.7679509,31.8585108 L0.247188435,16.1252219 C0.118223967,15.9631683 0.145048048,15.7272515 0.307101696,15.598287 C0.312666545,15.5938584 0.318356251,15.589589 0.32416391,15.585484 L1.49503593,14.7578836 C1.65739621,14.6431235 1.88110218,14.6750276 2.00490863,14.8305998 L13.7276229,29.5610806 C13.8565874,29.7231343 14.0925042,29.7499584 14.2545578,29.6209939 C14.2948823,29.5889031 14.3281595,29.5488451 14.3523125,29.5033201 L29.8374643,0.315916161 C29.9312892,0.139068889 30.1474815,0.0671060338 30.328578,0.152441576 L31.6442933,0.772427646 C31.831642,0.860709373 31.9119517,1.08415203 31.82367,1.27150078 C31.8211429,1.27686366 31.818489,1.28216586 31.8157105,1.28740292 L15.6270896,31.8007503 C15.5620457,31.9233493 15.434609,32 15.2958242,32 L13.061375,32 C12.9471197,32 12.8390971,31.9479115 12.7679509,31.8585108 Z" transform="translate(120)"/>
    <path fill="#000" fill-rule="nonzero" d="M14.7427914,32 L13.6498307,32 C13.5746278,32 13.5034201,31.9661467 13.4559449,31.9078236 L0.170732751,15.5869768 C0.0835691947,15.4798967 0.0997148165,15.322431 0.206795007,15.2352674 C0.211871641,15.231135 0.217108617,15.2272036 0.222493829,15.2234823 L0.729181913,14.8733458 C0.836512598,14.7991771 0.982831287,14.8200126 1.06519251,14.9211932 L13.9154269,30.7076709 C14.0025904,30.8147511 14.1600561,30.8308967 14.2671363,30.7437331 C14.2924463,30.7231307 14.3134776,30.6977721 14.3290434,30.6690882 L30.8605125,0.205791655 C30.923338,0.0900202158 31.0652134,0.0428550314 31.1848482,0.0979691921 L31.7575567,0.361808234 C31.8829603,0.41958 31.9377868,0.568073015 31.8800151,0.693476667 C31.8777313,0.698434037 31.8752857,0.703315287 31.8726824,0.708112566 L14.9625221,31.8692409 C14.9187947,31.9498195 14.8344701,32 14.7427914,32 Z" transform="translate(160)"/>
  </g>
</svg>
